<svg version="1.1" xmlns="http://www.w3.org/2000/svg" xmlns:xlink="http://www.w3.org/1999/xlink" width="289" height="551"><desc>%23%20Robot%20mobile%20%3A%20exemple%203%0A%0Aparticipant%20CPU%0Aparticipant%20Moteurs%0A%0Aactivecolor%20CPU%20%23red%0Aactivecolor%20Moteurs%20%23green%0A%0Aactivate%20CPU%0ACPU-%3EMoteurs%3AleftArc(0.2)%0Aactivate%20Moteurs%0Anote%20over%20CPU%3Adelay(4000)%0Anote%20over%20Moteurs%3AleftArc%0ACPU-%3EMoteurs%3AsetSpeed(20)%0Adeactivate%20Moteurs%0ACPU-%3EMoteurs%3ArightArc(0.2)%0Aactivate%20Moteurs%0Anote%20over%20CPU%3Adelay(4000)%0Anote%20over%20Moteurs%3Arightarc%0ACPU-%3EMoteurs%3Astop()%0Adeactivate%20Moteurs%0Adeactivate%20CPU%0A%0A</desc><defs/><g><g/><g/><g/><g/><g/><g/><g/><g/><g><rect fill="white" stroke="none" x="0" y="0" width="289" height="551"/></g><g/><g><path fill="none" stroke="black" paint-order="fill stroke markers" d=" M 77.9159899951953 55.049635120999994 L 77.9159899951953 551.639815441" stroke-miterlimit="10" stroke-width="1.3612669416666667" stroke-dasharray="12.565541,5.445067766666667"/><path fill="none" stroke="black" paint-order="fill stroke markers" d=" M 225.82887104864582 55.049635120999994 L 225.82887104864582 551.639815441" stroke-miterlimit="10" stroke-width="1.3612669416666667" stroke-dasharray="12.565541,5.445067766666667"/></g><g><path fill="none" stroke="none"/><g><path fill="white" stroke="black" paint-order="fill stroke markers" d=" M 44.71627360170702 10.944586211000003 L 111.11570638868358 10.944586211000003 L 111.11570638868358 55.049635120999994 L 44.71627360170702 55.049635120999994 L 44.71627360170702 10.944586211000003 Z" stroke-miterlimit="10" stroke-width="2.613632528" stroke-dasharray=""/></g><g><g/><text fill="black" stroke="none" font-family="sans-serif" font-size="11pt" font-style="normal" font-weight="normal" text-decoration="normal" x="62.43996918220702" y="38.71443182099999" text-anchor="start" dominant-baseline="alphabetic" xml:space="preserve">CPU</text></g><path fill="none" stroke="none"/><g><path fill="white" stroke="black" paint-order="fill stroke markers" d=" M 181.6270184246888 10.944586211000003 L 270.0307236726029 10.944586211000003 L 270.0307236726029 55.049635120999994 L 181.6270184246888 55.049635120999994 L 181.6270184246888 10.944586211000003 Z" stroke-miterlimit="10" stroke-width="2.613632528" stroke-dasharray=""/></g><g><g/><text fill="black" stroke="none" font-family="sans-serif" font-size="11pt" font-style="normal" font-weight="normal" text-decoration="normal" x="199.3507140051888" y="38.71443182099999" text-anchor="start" dominant-baseline="alphabetic" xml:space="preserve">Moteurs</text></g></g><g><path fill="red" stroke="black" paint-order="fill stroke markers" d=" M 69.74838834519531 63.217236770999996 L 86.0835916451953 63.217236770999996 L 86.0835916451953 494.466603891 L 69.74838834519531 494.466603891 L 69.74838834519531 63.217236770999996" stroke-miterlimit="10" stroke-width="1.3612669416666667" stroke-dasharray=""/><path fill="green" stroke="black" paint-order="fill stroke markers" d=" M 217.66126939864583 108.95580601099999 L 233.99647269864582 108.95580601099999 L 233.99647269864582 278.841920331 L 217.66126939864583 278.841920331 L 217.66126939864583 108.95580601099999" stroke-miterlimit="10" stroke-width="1.3612669416666667" stroke-dasharray=""/><path fill="green" stroke="black" paint-order="fill stroke markers" d=" M 217.66126939864583 324.580489571 L 233.99647269864582 324.580489571 L 233.99647269864582 494.466603891 L 217.66126939864583 494.466603891 L 217.66126939864583 324.580489571" stroke-miterlimit="10" stroke-width="1.3612669416666667" stroke-dasharray=""/><g><g><rect fill="white" stroke="none" x="113.5775073877604" y="87.720041721" width="76.58984626832031" height="21.23576429"/></g><text fill="black" stroke="none" font-family="sans-serif" font-size="11pt" font-style="normal" font-weight="normal" text-decoration="normal" x="116.0277878827604" y="102.42172469100001" text-anchor="start" dominant-baseline="alphabetic" xml:space="preserve">leftArc(0.2)</text></g><g><path fill="none" stroke="black" paint-order="fill stroke markers" d=" M 86.0835916451953 108.95580601099999 L 204.21195201497915 108.95580601099999" stroke-miterlimit="10" stroke-width="1.3612669416666667" stroke-dasharray=""/><g transform="translate(217.66126939864583,108.95580601099999) translate(-217.66126939864583,-108.95580601099999)"><path fill="black" stroke="none" paint-order="stroke fill markers" d=" M 204.04859998197915 102.14947130266665 L 217.66126939864583 108.95580601099999 L 204.04859998197915 115.76214071933333 Z"/></g></g><path fill="white" stroke="black" paint-order="fill stroke markers" d=" M 16.335203299999996 133.45861096099998 L 124.79509372039061 133.45861096099998 L 139.49677669039062 148.16029393099998 L 139.49677669039062 171.029578551 L 16.335203299999996 171.029578551 L 16.335203299999996 133.45861096099998 M 124.79509372039061 133.45861096099998 L 124.79509372039061 148.16029393099998 L 139.49677669039062 148.16029393099998" stroke-miterlimit="10" stroke-width="1.3612669416666667" stroke-dasharray=""/><g><text fill="black" stroke="none" font-family="sans-serif" font-size="11pt" font-style="normal" font-weight="normal" text-decoration="normal" x="39.20448791999999" y="156.32789558099995" text-anchor="start" dominant-baseline="alphabetic" xml:space="preserve">delay(4000)</text></g><path fill="white" stroke="black" paint-order="fill stroke markers" d=" M 182.18651513958332 195.53238350099997 L 254.76954398770832 195.53238350099997 L 269.4712269577083 210.23406647099998 L 269.4712269577083 233.10335109099998 L 182.18651513958332 233.10335109099998 L 182.18651513958332 195.53238350099997 M 254.76954398770832 195.53238350099997 L 254.76954398770832 210.23406647099998 L 269.4712269577083 210.23406647099998" stroke-miterlimit="10" stroke-width="1.3612669416666667" stroke-dasharray=""/><g><text fill="black" stroke="none" font-family="sans-serif" font-size="11pt" font-style="normal" font-weight="normal" text-decoration="normal" x="205.05579975958332" y="218.40166812099994" text-anchor="start" dominant-baseline="alphabetic" xml:space="preserve">leftArc</text></g><g><g><rect fill="white" stroke="none" x="105.41358221686197" y="257.60615604099996" width="92.91769661011719" height="21.23576429"/></g><text fill="black" stroke="none" font-family="sans-serif" font-size="11pt" font-style="normal" font-weight="normal" text-decoration="normal" x="107.86386271186197" y="272.30783901099994" text-anchor="start" dominant-baseline="alphabetic" xml:space="preserve">setSpeed(20)</text></g><g><path fill="none" stroke="black" paint-order="fill stroke markers" d=" M 86.0835916451953 278.841920331 L 204.21195201497915 278.841920331" stroke-miterlimit="10" stroke-width="1.3612669416666667" stroke-dasharray=""/><g transform="translate(217.66126939864583,278.841920331) translate(-217.66126939864583,-278.841920331)"><path fill="black" stroke="none" paint-order="stroke fill markers" d=" M 204.04859998197915 272.03558562266664 L 217.66126939864583 278.841920331 L 204.04859998197915 285.6482550393333 Z"/></g></g><g><g><rect fill="white" stroke="none" x="109.09648169195962" y="303.34472528099997" width="85.55189765992188" height="21.23576429"/></g><text fill="black" stroke="none" font-family="sans-serif" font-size="11pt" font-style="normal" font-weight="normal" text-decoration="normal" x="111.54676218695963" y="318.04640825099995" text-anchor="start" dominant-baseline="alphabetic" xml:space="preserve">rightArc(0.2)</text></g><g><path fill="none" stroke="black" paint-order="fill stroke markers" d=" M 86.0835916451953 324.580489571 L 204.21195201497915 324.580489571" stroke-miterlimit="10" stroke-width="1.3612669416666667" stroke-dasharray=""/><g transform="translate(217.66126939864583,324.580489571) translate(-217.66126939864583,-324.580489571)"><path fill="black" stroke="none" paint-order="stroke fill markers" d=" M 204.04859998197915 317.77415486266665 L 217.66126939864583 324.580489571 L 204.04859998197915 331.3868242793333 Z"/></g></g><path fill="white" stroke="black" paint-order="fill stroke markers" d=" M 16.335203299999996 349.08329452099997 L 124.79509372039061 349.08329452099997 L 139.49677669039062 363.78497749099995 L 139.49677669039062 386.654262111 L 16.335203299999996 386.654262111 L 16.335203299999996 349.08329452099997 M 124.79509372039061 349.08329452099997 L 124.79509372039061 363.78497749099995 L 139.49677669039062 363.78497749099995" stroke-miterlimit="10" stroke-width="1.3612669416666667" stroke-dasharray=""/><g><text fill="black" stroke="none" font-family="sans-serif" font-size="11pt" font-style="normal" font-weight="normal" text-decoration="normal" x="39.20448791999999" y="371.95257914099994" text-anchor="start" dominant-baseline="alphabetic" xml:space="preserve">delay(4000)</text></g><path fill="white" stroke="black" paint-order="fill stroke markers" d=" M 178.51794366741535 411.15706706099996 L 258.4381154598763 411.15706706099996 L 273.1397984298763 425.85875003099994 L 273.1397984298763 448.728034651 L 178.51794366741535 448.728034651 L 178.51794366741535 411.15706706099996 M 258.4381154598763 411.15706706099996 L 258.4381154598763 425.85875003099994 L 273.1397984298763 425.85875003099994" stroke-miterlimit="10" stroke-width="1.3612669416666667" stroke-dasharray=""/><g><text fill="black" stroke="none" font-family="sans-serif" font-size="11pt" font-style="normal" font-weight="normal" text-decoration="normal" x="201.38722828741535" y="434.02635168099994" text-anchor="start" dominant-baseline="alphabetic" xml:space="preserve">rightarc</text></g><g><g><rect fill="white" stroke="none" x="130.6855853906901" y="473.23083960099996" width="42.37369026246094" height="21.23576429"/></g><text fill="black" stroke="none" font-family="sans-serif" font-size="11pt" font-style="normal" font-weight="normal" text-decoration="normal" x="133.1358658856901" y="487.93252257099994" text-anchor="start" dominant-baseline="alphabetic" xml:space="preserve">stop()</text></g><g><path fill="none" stroke="black" paint-order="fill stroke markers" d=" M 86.0835916451953 494.466603891 L 204.21195201497915 494.466603891" stroke-miterlimit="10" stroke-width="1.3612669416666667" stroke-dasharray=""/><g transform="translate(217.66126939864583,494.466603891) translate(-217.66126939864583,-494.466603891)"><path fill="black" stroke="none" paint-order="stroke fill markers" d=" M 204.04859998197915 487.66026918266664 L 217.66126939864583 494.466603891 L 204.04859998197915 501.2729385993333 Z"/></g></g></g><g/><g/></g></svg>